<svg width="18" height="19" viewBox="0 0 18 19" fill="none" xmlns="http://www.w3.org/2000/svg">
<path d="M1 0.75H6.85366C6.99173 0.75 7.10366 0.86193 7.10366 1V7.16327C7.10366 7.30134 6.99173 7.41327 6.85366 7.41327H1C0.861929 7.41327 0.75 7.30134 0.75 7.16327V1C0.75 0.861929 0.861928 0.75 1 0.75ZM10.8171 0.75H16.6708C16.8089 0.75 16.9208 0.861929 16.9208 1V7.16327C16.9208 7.30134 16.8089 7.41327 16.6708 7.41327H10.8171C10.6791 7.41327 10.5671 7.30134 10.5671 7.16327V1C10.5671 0.861929 10.6791 0.75 10.8171 0.75ZM10.8171 10.9541H16.6708C16.8089 10.9541 16.9208 11.066 16.9208 11.2041V17.3674C16.9208 17.5054 16.8089 17.6174 16.6708 17.6174H10.8171C10.6791 17.6174 10.5671 17.5054 10.5671 17.3674V11.2041C10.5671 11.066 10.6791 10.9541 10.8171 10.9541ZM1 10.9541H6.85366C6.99173 10.9541 7.10366 11.066 7.10366 11.2041V17.3674C7.10366 17.5054 6.99173 17.6174 6.85366 17.6174H1C0.861929 17.6174 0.75 17.5054 0.75 17.3674V11.2041C0.75 11.066 0.861929 10.9541 1 10.9541Z" stroke="#224DCF" stroke-width="1.5" stroke-linejoin="round"/>
</svg>
