<svg width="91" height="21" viewBox="0 0 91 21" fill="none" xmlns="http://www.w3.org/2000/svg">
<path d="M14.2108 0.813477V12.9926L4.81719 0.813477H0.966309V20.4149H5.15482V7.90001L14.858 20.4149H18.4012V0.813477H14.2108Z" fill="#224DCF"/>
<path d="M31.4948 15.8579C32.2263 15.1564 32.5902 14.3123 32.5902 13.3275C32.5902 12.3428 32.2263 11.5006 31.4948 10.8253C30.7914 10.1219 29.9192 9.78615 28.88 9.78615C27.8671 9.78615 27.023 10.1219 26.3196 10.8253C25.6181 11.5006 25.2805 12.3428 25.2805 13.3275C25.2805 14.3123 25.6181 15.1564 26.3196 15.8579C27.023 16.535 27.8671 16.8727 28.88 16.8727C29.9192 16.8727 30.7914 16.535 31.4948 15.8579ZM23.0859 8.12613C24.4364 6.69119 26.1227 5.98779 28.1203 5.98779C30.2568 5.98779 31.9168 6.86001 32.3389 8.09612V6.24102H36.5292V15.4359C36.5292 16.5632 36.8106 17.0115 37.5684 17.0115C37.7653 17.0115 38.0186 16.9852 38.2718 16.9571V20.4422C37.8216 20.5848 37.2026 20.6673 36.3867 20.6673C35.4601 20.6673 34.6723 20.5003 34.0814 20.1627C33.4362 19.7407 33.0141 19.2361 32.8172 18.6415C31.8887 20.022 30.3412 20.6954 28.1203 20.6954C26.1227 20.6954 24.4364 19.9939 23.0859 18.5871C21.7654 17.1522 21.0901 15.4096 21.0901 13.3275C21.0901 11.2755 21.7654 9.53105 23.0859 8.12613Z" fill="#224DCF"/>
<path d="M40.1177 20.4153V6.2404H44.3081V8.18179C44.9552 6.74873 46.4745 5.93091 48.414 5.93091C48.6954 5.93091 49.0612 5.95904 49.5113 6.01532V9.95436C49.0893 9.86995 48.611 9.81368 48.1045 9.81368C45.7149 9.81368 44.3081 11.1623 44.3081 13.4976V20.4153H40.1177Z" fill="#224DCF"/>
<path d="M53.2176 20.4153V10.0388H50.8823V6.2404H53.2176V5.8465C53.2176 3.79632 53.7785 2.33137 54.8758 1.46103C55.6917 0.759507 57.0122 0.421875 58.7848 0.421875C59.3475 0.421875 59.9102 0.476271 60.4729 0.560679V4.04767C60.2197 3.96326 59.7977 3.90699 59.2068 3.90699C57.8582 3.90699 57.2673 4.3853 57.2673 5.59515V6.2404H60.1072V10.0388H57.2673V20.4153H53.2176Z" fill="#224DCF"/>
<path d="M71.7442 11.6961C71.7442 10.3755 70.3655 9.33451 68.6792 9.33451C66.8504 9.33451 65.3611 10.3755 65.2485 11.6961H71.7442ZM61 13.2998C61 11.0789 61.7334 9.27824 63.1665 7.92771C64.6014 6.5528 66.4584 5.87378 68.6792 5.87378C70.8457 5.87378 72.5883 6.57906 73.9369 7.95772C75.2874 9.33451 75.9627 11.0227 75.9627 13.0747C75.9627 13.553 75.9346 14.0032 75.9064 14.4253H65.1923C65.2767 16.1115 66.7379 17.2089 68.9606 17.2089C70.2811 17.2089 71.4347 16.7587 72.4194 15.8302L74.8654 18.1636C73.2072 19.8799 71.1533 20.7521 68.7636 20.7521C66.4302 20.7521 64.5733 20.0787 63.1383 18.7563C61.7034 17.4058 61 15.6351 61 13.4124V13.2998Z" fill="#224DCF"/>
<path d="M75.5891 20.4154L80.9593 12.9631L76.0956 6.24048H80.6517L83.2946 9.98257L85.9394 6.24048H90.4937L85.628 12.9631L91.0001 20.4154H86.4721L83.2946 15.9999L80.1171 20.4154H75.5891Z" fill="#224DCF"/>
</svg>
